{
  "accessors": [
    {
      "bufferView": 1,
      "componentType": 5126,
      "count": 1978,
      "max": [
        4.4585981369018555,
        4.4585981369018555,
        11.734339714050293
      ],
      "min": [
        0.05292065069079399,
        0.05292065069079399,
        0.0
      ],
      "type": "VEC3"
    },
    {
      "bufferView": 1,
      "byteOffset": 23736,
      "componentType": 5126,
      "count": 1978,
      "max": [
        1.0,
        1.0,
        1.0
      ],
      "min": [
        -1.0,
        -1.0,
        -1.0
      ],
      "type": "VEC3"
    },
    {
      "bufferView": 0,
      "componentType": 5125,
      "count": 11544,
      "type": "SCALAR"
    },
    {
      "bufferView": 1,
      "byteOffset": 47472,
      "componentType": 5126,
      "count": 926,
      "max": [
        4.4571709632873535,
        4.4571709632873535,
        11.598620414733887
      ],
      "min": [
        0.05434754118323326,
        0.05434754118323326,
        9.608898162841797
      ],
      "type": "VEC3"
    },
    {
      "bufferView": 1,
      "byteOffset": 58584,
      "componentType": 5126,
      "count": 926,
      "max": [
        0.9999191164970398,
        0.9999191164970398,
        0.9954746961593628
      ],
      "min": [
        -0.9999191164970398,
        -0.9999191164970398,
        -0.9954746961593628
      ],
      "type": "VEC3"
    },
    {
      "bufferView": 0,
      "byteOffset": 46176,
      "componentType": 5125,
      "count": 5256,
      "type": "SCALAR"
    }
  ],
  "asset": {
    "extras": {
      "author": "wongcha_um (https://sketchfab.com/wongcha_um)",
      "license": "CC-BY-NC-4.0 (http://creativecommons.org/licenses/by-nc/4.0/)",
      "source": "https://sketchfab.com/3d-models/travel-tumbler-ee1541ce202a4a248076114f9597d410",
      "title": "Travel Tumbler"
    },
    "generator": "Sketchfab-15.18.0",
    "version": "2.0"
  },
  "bufferViews": [
    {
      "buffer": 0,
      "byteLength": 67200,
      "name": "floatBufferViews",
      "target": 34963
    },
    {
      "buffer": 0,
      "byteLength": 69696,
      "byteOffset": 67200,
      "byteStride": 12,
      "name": "floatBufferViews",
      "target": 34962
    }
  ],
  "buffers": [
    {
      "byteLength": 136896,
      "uri": "scene.bin"
    }
  ],
  "extensionsRequired": [
    "KHR_materials_pbrSpecularGlossiness"
  ],
  "extensionsUsed": [
    "KHR_materials_pbrSpecularGlossiness"
  ],
  "materials": [
    {
      "extensions": {
        "KHR_materials_pbrSpecularGlossiness": {
          "diffuseFactor": [
            0.4105643039113754,
            0.4105643039113754,
            0.4105643039113754,
            1.0
          ],
          "glossinessFactor": 0.4,
          "specularFactor": [
            0.42732217013540547,
            0.42732217013540547,
            0.42732217013540547
          ]
        }
      },
      "name": "0129_WhiteSmoke"
    },
    {
      "extensions": {
        "KHR_materials_pbrSpecularGlossiness": {
          "diffuseFactor": [
            0.08745388625668059,
            0.08745388625668059,
            0.08745388625668059,
            1.0
          ],
          "glossinessFactor": 0.4,
          "specularFactor": [
            0.0,
            0.0,
            0.0
          ]
        }
      },
      "name": "0135_DarkGray"
    }
  ],
  "meshes": [
    {
      "name": "Material2",
      "primitives": [
        {
          "attributes": {
            "NORMAL": 1,
            "POSITION": 0
          },
          "indices": 2,
          "material": 0,
          "mode": 4
        }
      ]
    },
    {
      "name": "Material3",
      "primitives": [
        {
          "attributes": {
            "NORMAL": 4,
            "POSITION": 3
          },
          "indices": 5,
          "material": 1,
          "mode": 4
        }
      ]
    }
  ],
  "nodes": [
    {
      "children": [
        1
      ],
      "matrix": [
        1.0,
        0.0,
        0.0,
        0.0,
        0.0,
        2.220446049250313e-16,
        -1.0,
        0.0,
        0.0,
        1.0,
        2.220446049250313e-16,
        0.0,
        0.0,
        0.0,
        0.0,
        1.0
      ],
      "name": "Sketchfab_model"
    },
    {
      "children": [
        2
      ],
      "name": "Collada visual scene group"
    },
    {
      "children": [
        3,
        5
      ],
      "name": "SketchUp"
    },
    {
      "children": [
        4
      ],
      "matrix": [
        1.0,
        0.0,
        0.0,
        0.0,
        0.0,
        1.0,
        0.0,
        0.0,
        0.0,
        0.0,
        1.0,
        0.0,
        1672.414,
        50.13392,
        20.23372,
        1.0
      ],
      "name": "skp_camera_Last_Saved_SketchUp_View"
    },
    {
      "name": "ID1"
    },
    {
      "children": [
        6
      ],
      "matrix": [
        1.0,
        0.0,
        0.0,
        0.0,
        0.0,
        1.0,
        0.0,
        0.0,
        0.0,
        0.0,
        1.0,
        0.0,
        1670.158,
        47.87816,
        1.776357e-15,
        1.0
      ],
      "name": "instance_0"
    },
    {
      "children": [
        7,
        8
      ],
      "name": "Travel_Tumbler"
    },
    {
      "mesh": 0,
      "name": "Material2"
    },
    {
      "mesh": 1,
      "name": "Material3"
    }
  ],
  "scene": 0,
  "scenes": [
    {
      "name": "Sketchfab_Scene",
      "nodes": [
        0
      ]
    }
  ]
}
